<?xml version="1.0" encoding="utf-8"?>
<!-- Generator: Adobe Illustrator 16.0.0, SVG Export Plug-In . SVG Version: 6.00 Build 0)  -->
<!DOCTYPE svg PUBLIC "-//W3C//DTD SVG 1.1//EN" "http://www.w3.org/Graphics/SVG/1.1/DTD/svg11.dtd">
<svg version="1.1" xmlns="http://www.w3.org/2000/svg" xmlns:xlink="http://www.w3.org/1999/xlink" x="0px" y="0px" width="16px"
	 height="16px" viewBox="0 0 16 16" enable-background="new 0 0 16 16" xml:space="preserve">
<g id="Plus">
	<polygon fill="#24B252" stroke="#209F49" stroke-width="0.34821" stroke-miterlimit="10" points="15.5,11.41504 13.0625,11.41504 
		13.0625,8.97754 11.4375,8.97754 11.4375,11.41504 9,11.41504 9,13.04004 11.4375,13.04004 11.4375,15.47754 13.0625,15.47754 
		13.0625,13.04004 15.5,13.04004 	"/>
</g>
<g id="Walkline">
	<g id="ARC_3_">
		<path fill="none" stroke="#DDDDDD" stroke-width="0.5" stroke-miterlimit="10" d="M4.5,15V8.00684
			C4.5,6.07031,6.07031,4.5,8.00684,4.5H15"/>
	</g>
</g>
<g id="Steps">
	<g id="LINE_9_">
		<polygon fill="none" stroke="#379BE4" stroke-width="0.5" stroke-miterlimit="10" points="1,7.22559 8,9.77734 8,11.21777 
			1,10.11719 		"/>
	</g>
	<g id="LINE_8_">
		<polygon fill="none" stroke="#379BE4" stroke-width="0.5" stroke-miterlimit="10" points="10.11816,1 11.21777,8 9.77734,8 
			7.22656,1 		"/>
	</g>
	<polygon fill="none" stroke="#379BE4" stroke-width="0.5" stroke-miterlimit="10" points="1,3.70508 8,8.5498 8,8 8.5498,8 
		3.70605,1 1,1 	"/>
	<polygon fill="none" stroke="#379BE4" stroke-width="0.5" stroke-miterlimit="10" points="12.92969,8 12.73828,1 15,1 15,8 	"/>
	<polygon fill="none" stroke="#379BE4" stroke-width="0.5" stroke-miterlimit="10" points="8,12.92969 8,15 1,15 1,12.7373 	"/>
</g>
<g id="Limons">
	<g id="LINE_7_">
		<polygon fill="none" stroke="#666666" stroke-width="0.5" stroke-linecap="round" stroke-miterlimit="10" points="1,15 8,15 
			8,8.00684 8.00684,8 15,8 15,1 1.00684,1 1,1.00684 		"/>
	</g>
	<g id="Layer_3">
	</g>
</g>
<g id="Dot">
	<rect x="14" fill="#666666" stroke="#FFFFFF" stroke-width="0.33376" stroke-miterlimit="10" width="2" height="2"/>
	<rect x="14" y="6.97754" fill="#666666" stroke="#FFFFFF" stroke-width="0.33376" stroke-miterlimit="10" width="2" height="2"/>
	<rect x="7" y="6.97754" fill="#666666" stroke="#FFFFFF" stroke-width="0.33376" stroke-miterlimit="10" width="2" height="2"/>
	<rect x="7" y="14" fill="#666666" stroke="#FFFFFF" stroke-width="0.33376" stroke-miterlimit="10" width="2" height="2"/>
	<rect y="14" fill="#666666" stroke="#FFFFFF" stroke-width="0.33376" stroke-miterlimit="10" width="2" height="2"/>
	<rect fill="#666666" stroke="#FFFFFF" stroke-width="0.33376" stroke-miterlimit="10" width="2" height="2"/>
</g>
<g id="Walk_point">
</g>
</svg>
