<?xml version="1.0" encoding="utf-8"?>
<!-- Generator: Adobe Illustrator 16.0.0, SVG Export Plug-In . SVG Version: 6.00 Build 0)  -->
<!DOCTYPE svg PUBLIC "-//W3C//DTD SVG 1.1//EN" "http://www.w3.org/Graphics/SVG/1.1/DTD/svg11.dtd">
<svg version="1.1" xmlns="http://www.w3.org/2000/svg" xmlns:xlink="http://www.w3.org/1999/xlink" x="0px" y="0px" width="32px"
	 height="32px" viewBox="0 0 32 32" enable-background="new 0 0 32 32" xml:space="preserve">
<g id="Plus">
	<polygon fill="#24B252" stroke="#209F49" stroke-width="0.69643" stroke-miterlimit="10" points="31,22.82959 26.125,22.82959 
		26.125,17.95459 22.875,17.95459 22.875,22.82959 18,22.82959 18,26.07959 22.875,26.07959 22.875,30.95459 26.125,30.95459 
		26.125,26.07959 31,26.07959 	"/>
</g>
<g id="Walkline">
	<g id="ARC_2_">
		<path fill="none" stroke="#DDDDDD" stroke-miterlimit="10" d="M9,30.00049v-13.9873c0-3.87305,3.14063-7.01367,7.01367-7.01367H30
			"/>
	</g>
</g>
<g id="Steps">
	<g id="LINE_3_">
		<polygon fill="none" stroke="#379BE4" stroke-miterlimit="10" points="2,14.45068 16,19.55518 16,22.43604 2,20.23486 		"/>
	</g>
	<g id="LINE_2_">
		<polygon fill="none" stroke="#379BE4" stroke-miterlimit="10" points="20.23633,1.99951 22.43555,15.99951 19.55566,15.99951 
			14.45215,1.99951 		"/>
	</g>
	<polygon fill="none" stroke="#379BE4" stroke-miterlimit="10" points="2,7.41064 16,17.09912 16,15.99951 17.09961,15.99951 
		7.41211,1.99951 2,1.99951 	"/>
	<polygon fill="none" stroke="#379BE4" stroke-miterlimit="10" points="25.85938,15.99951 25.47656,1.99951 30,1.99951 30,15.99951 
			"/>
	<polygon fill="none" stroke="#379BE4" stroke-miterlimit="10" points="16,25.85986 16,30.00049 2,30.00049 2,25.4751 	"/>
</g>
<g id="Limons">
	<g id="LINE_1_">
		<path fill="none" stroke="#666666" stroke-linecap="round" stroke-miterlimit="10" d="M2,30.00049h14v-13.9873
			c0-0.00781,0.00586-0.01367,0.01367-0.01367H30v-14H2.01367L2,2.01318V30.00049z"/>
	</g>
	<g id="Layer_3">
	</g>
</g>
<g id="Dot">
	<rect x="28" y="-0.00049" fill="#666666" stroke="#FFFFFF" stroke-width="0.66751" stroke-miterlimit="10" width="4" height="4"/>
	<rect x="28" y="13.95459" fill="#666666" stroke="#FFFFFF" stroke-width="0.66751" stroke-miterlimit="10" width="4" height="4"/>
	<rect x="14" y="13.95459" fill="#666666" stroke="#FFFFFF" stroke-width="0.66751" stroke-miterlimit="10" width="4" height="4"/>
	<rect x="14" y="28.00049" fill="#666666" stroke="#FFFFFF" stroke-width="0.66751" stroke-miterlimit="10" width="4" height="4"/>
	<rect y="28.00049" fill="#666666" stroke="#FFFFFF" stroke-width="0.66751" stroke-miterlimit="10" width="4" height="4"/>
	<rect y="-0.00049" fill="#666666" stroke="#FFFFFF" stroke-width="0.66751" stroke-miterlimit="10" width="4" height="4"/>
</g>
<g id="Walk_point">
</g>
</svg>
