<?xml version="1.0" encoding="utf-8"?>
<!-- Generator: Adobe Illustrator 23.0.3, SVG Export Plug-In . SVG Version: 6.00 Build 0)  -->
<svg version="1.1" xmlns="http://www.w3.org/2000/svg" xmlns:xlink="http://www.w3.org/1999/xlink" x="0px" y="0px"
	 viewBox="0 0 32 32" style="enable-background:new 0 0 32 32;" xml:space="preserve">
<style type="text/css">
	.st0{display:none;}
	.st1{display:inline;fill:#FFFFFF;}
	.st2{display:inline;fill:none;stroke:#FFFFFF;stroke-miterlimit:10;}
	.st3{display:inline;fill:#0094D2;}
	.st4{fill:#A5C020;}
	.st5{fill:#B8D426;}
	.st6{fill:#0094D2;}
	.st7{fill:#00AEEE;}
	.st8{fill:#FFFFFF;}
	.st9{opacity:0.3;fill:#666666;}
	.st10{fill:#E66700;}
	.st11{fill:#FF8B0B;}
	.st12{fill:#999999;}
	.st13{fill:#BBBBBB;}
	.st14{display:inline;fill:#00AEEE;}
	.st15{display:inline;fill:#B8D426;}
	.st16{display:inline;fill:#A5C020;}
	.st17{display:inline;fill:#D7D7D7;}
	.st18{display:inline;fill:#FF8B0B;}
	.st19{display:inline;fill:#E66700;}
</style>
<g id="src" class="st0">
</g>
<g id="sketch" class="st0">
</g>
<g id="curseur">
	<g>
		<rect class="st8" width="32" height="32"/>
		<g>
			<path class="st10" d="M30.5,16c0,4.10762-3.24594,7.4375-7.25,7.4375H8.75c-4.00406,0-7.25-3.32988-7.25-7.4375
				s3.24594-7.4375,7.25-7.4375h14.5C27.25406,8.5625,30.5,11.89238,30.5,16z"/>
			<path class="st11" d="M31,17c0,3.86599-3.13401,7-7,7H10c-3.86599,0-7-3.13401-7-7s3.13401-7,7-7h14
				C27.86599,10,31,13.13401,31,17z"/>
			<path class="st6" d="M23,7H9c-4.97056,0-9,4.02944-9,9s4.02944,9,9,9h14c4.97056,0,9-4.02944,9-9S27.97056,7,23,7z M30,16
				c0,3.86599-3.13401,7-7,7H9c-3.86599,0-7-3.13401-7-7s3.13401-7,7-7h14C26.86599,9,30,12.13401,30,16z"/>
		</g>
		<g>
			<circle class="st7" cx="9" cy="16" r="9"/>
			<circle class="st8" cx="9" cy="16" r="5.0625"/>
			<path class="st9" d="M15.36396,9.63604L2.63604,22.36396C4.26472,23.99264,6.51472,25,9,25c4.97056,0,9-4.02943,9-9
				C18,13.51472,16.99264,11.26472,15.36396,9.63604z"/>
		</g>
	</g>
</g>
<g id="curseur_ombre">
</g>
<g id="couleurs" class="st0">
</g>
</svg>
