<?xml version="1.0" encoding="utf-8"?>
<!-- Generator: Adobe Illustrator 23.0.3, SVG Export Plug-In . SVG Version: 6.00 Build 0)  -->
<svg version="1.1" xmlns="http://www.w3.org/2000/svg" xmlns:xlink="http://www.w3.org/1999/xlink" x="0px" y="0px"
	 viewBox="0 0 512 512" style="enable-background:new 0 0 512 512;" xml:space="preserve">
<style type="text/css">
	.st0{display:none;}
	.st1{display:inline;fill:#FFFFFF;}
	.st2{display:inline;fill:none;stroke:#FFFFFF;stroke-miterlimit:10;}
	.st3{display:inline;fill:#0094D2;}
	.st4{fill:#A5C020;}
	.st5{fill:#B8D426;}
	.st6{fill:#0094D2;}
	.st7{fill:#00AEEE;}
	.st8{fill:#FFFFFF;}
	.st9{opacity:0.3;fill:#666666;}
	.st10{fill:#E66700;}
	.st11{fill:#FF8B0B;}
	.st12{fill:#999999;}
	.st13{fill:#BBBBBB;}
	.st14{display:inline;fill:#00AEEE;}
	.st15{display:inline;fill:#B8D426;}
	.st16{display:inline;fill:#A5C020;}
	.st17{display:inline;fill:#D7D7D7;}
	.st18{display:inline;fill:#FF8B0B;}
	.st19{display:inline;fill:#E66700;}
</style>
<g id="src" class="st0">
</g>
<g id="sketch" class="st0">
	<circle class="st2" cx="368" cy="256" r="81"/>
	<circle class="st2" cx="368" cy="256" r="144"/>
	<circle class="st2" cx="144" cy="256" r="144"/>
	<circle class="st2" cx="144" cy="256" r="112"/>
	<circle class="st2" cx="368" cy="256" r="112"/>
</g>
<g id="curseur">
	<g>
		<rect class="st8" width="512" height="512"/>
		<g>
			<path class="st12" d="M488,256c0,65.72189-51.93497,119-116,119H140c-64.06503,0-116-53.27811-116-119s51.93497-119,116-119h232
				C436.06503,137,488,190.27811,488,256z"/>
			<path class="st13" d="M496,272c0,61.8559-50.1441,112-112,112H160c-61.8559,0-112-50.1441-112-112s50.1441-112,112-112h224
				C445.8559,160,496,210.1441,496,272z"/>
			<path class="st6" d="M368,112H144C64.47101,112,0,176.47101,0,256s64.47101,144,144,144h224c79.52899,0,144-64.47101,144-144
				S447.52899,112,368,112z M480,256c0,61.8559-50.1441,112-112,112H144c-61.8559,0-112-50.1441-112-112s50.1441-112,112-112h224
				C429.8559,144,480,194.1441,480,256z"/>
		</g>
		<g>
			<circle class="st7" cx="144" cy="256" r="144"/>
			<circle class="st8" cx="144" cy="256" r="81"/>
			<path class="st9" d="M245.82336,154.17664L42.1767,357.82336C68.23553,383.8822,104.23553,400,144,400
				c79.52899,0,144-64.47095,144-144C288,216.23547,271.8822,180.23553,245.82336,154.17664z"/>
		</g>
	</g>
</g>
<g id="curseur_ombre">
</g>
<g id="couleurs" class="st0">
</g>
</svg>
